<?xml version="1.0" standalone="no"?>
<!DOCTYPE svg PUBLIC "-//W3C//DTD SVG 20010904//EN"
 "http://www.w3.org/TR/2001/REC-SVG-20010904/DTD/svg10.dtd">
<svg version="1.0" xmlns="http://www.w3.org/2000/svg"
 width="1250.000000pt" height="1250.000000pt" viewBox="0 0 1250.000000 1250.000000"
 preserveAspectRatio="xMidYMid meet">

<g transform="translate(0.000000,1250.000000) scale(0.100000,-0.100000)"
fill="#000000" stroke="none">
<path d="M2450 11514 c-144 -39 -256 -152 -294 -299 -14 -53 -16 -561 -16
-4935 0 -4317 2 -4882 15 -4934 31 -117 110 -213 223 -268 l67 -33 3785 -3
c3310 -2 3791 0 3835 13 126 36 236 145 275 273 20 63 20 104 20 3796 0 4080
4 3786 -56 3894 -18 31 -423 443 -1218 1237 -1279 1278 -1235 1237 -1364 1264
-38 8 -781 11 -2635 10 -2240 0 -2589 -2 -2637 -15z m4769 -344 c129 -24 247
-116 304 -237 l32 -68 5 -905 5 -905 23 -55 c46 -113 129 -196 242 -242 l55
-23 900 -5 900 -5 55 -22 c120 -49 214 -151 251 -273 19 -64 19 -105 17 -3395
l-3 -3330 -32 -68 c-43 -90 -119 -169 -202 -210 l-66 -32 -3455 0 -3455 0 -57
28 c-121 59 -211 174 -237 300 -8 37 -10 1379 -9 4592 l3 4540 33 70 c57 121
163 210 287 241 64 16 4321 20 4404 4z m1618 -1163 c892 -891 861 -857 810
-906 l-24 -22 -719 3 -719 3 -66 32 c-79 39 -140 102 -177 181 l-27 57 -3 716
c-3 714 -3 716 18 742 47 59 9 93 907 -806z"/>
<path d="M3412 8809 c-73 -22 -142 -120 -142 -204 0 -53 44 -131 91 -162 l43
-28 988 -3 c966 -2 989 -2 1027 17 144 74 149 281 8 362 l-42 24 -970 2 c-601
1 -983 -2 -1003 -8z"/>
<path d="M6513 7941 c-76 -19 -132 -75 -153 -153 -23 -82 20 -180 98 -225 l47
-28 925 -3 c509 -2 953 0 987 3 71 7 126 38 163 93 21 30 25 47 25 112 0 67
-3 82 -28 117 -15 22 -46 50 -70 64 l-42 24 -960 2 c-528 0 -974 -2 -992 -6z"/>
<path d="M4475 7924 c-80 -41 -122 -118 -112 -207 25 -205 312 -245 392 -55
38 91 -2 211 -84 255 -53 28 -149 31 -196 7z"/>
<path d="M5432 7919 c-25 -13 -55 -39 -70 -62 -23 -35 -27 -51 -27 -116 0 -64
4 -82 24 -112 43 -63 85 -84 172 -84 66 0 81 4 117 28 113 74 117 243 8 331
-33 27 -47 31 -109 34 -59 2 -80 -1 -115 -19z"/>
<path d="M3938 7081 c-45 -15 -96 -60 -118 -105 -20 -43 -20 -47 -18 -1368 l3
-1325 29 -41 c42 -61 119 -97 192 -89 71 7 124 42 161 104 l28 48 5 988 5 988
843 -1040 c803 -991 846 -1041 898 -1067 99 -48 206 -18 265 75 l29 45 0 1325
0 1326 -23 40 c-12 21 -42 53 -65 70 -39 27 -52 30 -115 30 -86 0 -133 -24
-175 -88 l-27 -41 -5 -1009 -5 -1009 -825 1018 c-454 560 -833 1030 -842 1045
-30 48 -93 83 -156 86 -32 1 -69 -2 -84 -6z"/>
<path d="M6800 7079 c-44 -18 -90 -59 -113 -102 l-22 -42 0 -1315 0 -1315 25
-45 c35 -62 92 -100 163 -107 74 -8 151 27 193 89 l29 41 3 754 2 753 328 0
328 0 51 25 c69 35 106 88 111 165 5 72 -9 117 -51 160 -66 68 -75 70 -439 70
l-328 0 0 230 0 230 718 0 c469 0 730 4 755 11 48 13 102 61 129 112 16 32 19
54 16 103 -5 80 -40 133 -111 169 l-51 25 -855 -1 c-538 0 -865 -4 -881 -10z"/>
<path d="M3055 5577 c-128 -72 -134 -259 -12 -344 30 -21 54 -28 102 -31 70
-5 115 11 161 56 73 73 75 206 5 286 -51 58 -181 75 -256 33z"/>
<path d="M8237 5100 c-158 -50 -184 -282 -41 -366 70 -41 134 -43 204 -7 101
53 137 174 83 279 -30 59 -87 95 -159 100 -32 2 -72 -1 -87 -6z"/>
<path d="M8946 5096 c-118 -44 -163 -198 -91 -308 37 -56 118 -93 187 -85 118
14 197 109 185 223 -11 105 -80 172 -184 180 -36 3 -73 -1 -97 -10z"/>
<path d="M3379 3757 c-81 -43 -124 -145 -99 -237 15 -55 83 -124 137 -139 54
-15 3553 -15 3608 0 55 15 101 52 126 101 17 33 20 55 17 108 -4 77 -28 121
-87 161 l-36 24 -1811 3 -1811 2 -44 -23z"/>
<path d="M7921 3769 c-48 -19 -84 -54 -107 -103 -40 -87 -27 -166 40 -232 128
-129 347 -39 346 142 -1 119 -88 205 -207 203 -26 0 -59 -5 -72 -10z"/>
<path d="M8935 3761 c-105 -48 -143 -165 -91 -278 58 -123 223 -148 322 -49
78 77 84 183 16 275 -49 66 -164 90 -247 52z"/>
<path d="M3418 2721 c-78 -26 -131 -86 -144 -167 -19 -124 96 -246 220 -232
63 7 116 38 151 87 24 34 30 54 33 109 3 81 -20 130 -84 175 -44 31 -126 44
-176 28z"/>
<path d="M4409 2707 c-24 -13 -57 -43 -74 -66 -27 -38 -30 -51 -30 -115 0 -64
4 -78 29 -114 18 -27 47 -51 80 -67 l52 -25 1081 2 1081 3 44 30 c67 48 89 95
86 182 -3 62 -7 76 -34 110 -16 21 -50 48 -74 61 l-44 22 -1077 0 -1076 0 -44
-23z"/>
<path d="M7492 2709 c-103 -52 -140 -173 -84 -280 22 -43 38 -59 81 -81 l53
-28 763 0 763 0 53 28 c43 22 59 38 81 81 35 66 36 119 4 188 -17 36 -38 60
-67 80 l-43 28 -780 3 c-780 2 -781 2 -824 -19z"/>
</g>
</svg>
